<svg width="200" height="200" viewBox="0 0 200 200" fill="none" xmlns="http://www.w3.org/2000/svg">
<rect width="200" height="200" fill="#1F0404"/>
<g filter="url(#filter0_di_76_1437)">
<path d="M85.2078 124.45C84.9673 118.765 85.1477 114.048 85.749 110.298C86.4706 106.427 87.8536 103.04 89.898 100.137C92.0627 97.1131 95.0092 94.2101 98.7373 91.428L108.478 84.1704C111.605 81.8721 113.89 79.6948 115.333 77.6385C116.776 75.5822 117.498 73.5863 117.498 71.651C117.498 69.2318 116.776 67.115 115.333 65.3006C113.89 63.4862 111.906 62.0346 109.38 60.946C106.975 59.8573 104.149 59.313 100.902 59.313C95.7307 59.313 90.9804 60.7041 86.651 63.4862C82.4418 66.2682 79.4353 69.9575 77.6314 74.554L54 65.6634C56.285 59.3735 59.7725 53.9908 64.4627 49.5152C69.1529 44.9187 74.685 41.3504 81.0588 38.8102C87.5529 36.2701 94.5281 35 101.984 35C110.403 35 117.919 36.5725 124.533 39.7174C131.148 42.7415 136.379 46.8541 140.227 52.0554C144.076 57.2567 146 63.1838 146 69.8366C146 74.3121 145.278 78.3038 143.835 81.8116C142.512 85.3195 140.167 88.7669 136.8 92.1537C133.553 95.4197 129.043 99.0485 123.271 103.04L118.761 106.125C115.273 108.423 112.808 110.963 111.365 113.745C110.042 116.406 109.441 119.975 109.561 124.45H85.2078ZM97.4745 166C92.9046 166 88.936 164.367 85.5686 161.101C82.3216 157.714 80.698 153.723 80.698 149.126C80.698 144.53 82.3216 140.598 85.5686 137.332C88.936 133.946 92.9046 132.252 97.4745 132.252C102.044 132.252 105.953 133.946 109.2 137.332C112.567 140.598 114.251 144.53 114.251 149.126C114.251 153.723 112.567 157.714 109.2 161.101C105.953 164.367 102.044 166 97.4745 166Z" fill="url(#paint0_linear_76_1437)"/>
</g>
<defs>
<filter id="filter0_di_76_1437" x="50" y="35" width="100" height="139" filterUnits="userSpaceOnUse" color-interpolation-filters="sRGB">
<feFlood flood-opacity="0" result="BackgroundImageFix"/>
<feColorMatrix in="SourceAlpha" type="matrix" values="0 0 0 0 0 0 0 0 0 0 0 0 0 0 0 0 0 0 127 0" result="hardAlpha"/>
<feOffset dy="4"/>
<feGaussianBlur stdDeviation="2"/>
<feComposite in2="hardAlpha" operator="out"/>
<feColorMatrix type="matrix" values="0 0 0 0 0 0 0 0 0 0 0 0 0 0 0 0 0 0 0.75 0"/>
<feBlend mode="normal" in2="BackgroundImageFix" result="effect1_dropShadow_76_1437"/>
<feBlend mode="normal" in="SourceGraphic" in2="effect1_dropShadow_76_1437" result="shape"/>
<feColorMatrix in="SourceAlpha" type="matrix" values="0 0 0 0 0 0 0 0 0 0 0 0 0 0 0 0 0 0 127 0" result="hardAlpha"/>
<feOffset dx="2" dy="4"/>
<feGaussianBlur stdDeviation="2"/>
<feComposite in2="hardAlpha" operator="arithmetic" k2="-1" k3="1"/>
<feColorMatrix type="matrix" values="0 0 0 0 0 0 0 0 0 0 0 0 0 0 0 0 0 0 0.5 0"/>
<feBlend mode="normal" in2="shape" result="effect2_innerShadow_76_1437"/>
</filter>
<linearGradient id="paint0_linear_76_1437" x1="100" y1="35" x2="100" y2="166" gradientUnits="userSpaceOnUse">
<stop stop-color="white"/>
<stop offset="1" stop-color="#DF9094"/>
</linearGradient>
</defs>
</svg>
